HIERARCHY
ROOT Hips
{
	OFFSET 0.000000 71.427986 0.000000
	CHANNELS 6 Xposition Yposition Zposition Xrotation Yrotation Zrotation
	JOINT Pelvis
	{
		OFFSET 0.000000 0.000000 0.000000
		CHANNELS 3 Xrotation Yrotation Zrotation
		JOINT LeftUpLeg
		{
			OFFSET 6.797100 -2.508499 -1.318700
			CHANNELS 3 Xrotation Yrotation Zrotation
			JOINT LeftLeg
			{
				OFFSET 0.069008 -29.241863 0.690200
				CHANNELS 3 Xrotation Yrotation Zrotation
				JOINT LeftFoot
				{
					OFFSET -0.069008 -29.568123 -0.266800
					CHANNELS 3 Xrotation Yrotation Zrotation
					JOINT LeftToeBase
					{
						OFFSET 3.145500 -8.631000 16.059900
						CHANNELS 3 Xrotation Yrotation Zrotation
						End Site
						{
							OFFSET 0.000000 18.501587 0.000000
						}
					}
				}
			}
			JOINT Left_ShortSleeve
			{
				OFFSET 0.265923 -10.480953 1.153800
				CHANNELS 3 Xrotation Yrotation Zrotation
				End Site
				{
					OFFSET 1.725763 19.823879 0.000000
				}
			}
		}
		JOINT RightUpLeg
		{
			OFFSET -6.797100 -2.508499 -1.318700
			CHANNELS 3 Xrotation Yrotation Zrotation
			JOINT RightLeg
			{
				OFFSET -0.082453 -29.241932 0.688000
				CHANNELS 3 Xrotation Yrotation Zrotation
				JOINT RightFoot
				{
					OFFSET 0.082453 -29.568058 -0.264600
					CHANNELS 3 Xrotation Yrotation Zrotation
					JOINT RightToeBase
					{
						OFFSET -3.115300 -8.682800 16.113400
						CHANNELS 3 Xrotation Yrotation Zrotation
						End Site
						{
							OFFSET 0.000000 18.567114 0.000000
						}
					}
				}
			}
			JOINT Right_ShortSleeve
			{
				OFFSET -0.265923 -10.480953 1.153800
				CHANNELS 3 Xrotation Yrotation Zrotation
				End Site
				{
					OFFSET -1.725766 19.823910 0.000000
				}
			}
		}
	}
	JOINT Spine
	{
		OFFSET 0.000000 13.368103 0.470500
		CHANNELS 3 Xrotation Yrotation Zrotation
		JOINT Spine1
		{
			OFFSET 0.147000 13.837402 0.538800
			CHANNELS 3 Xrotation Yrotation Zrotation
			JOINT Spine2
			{
				OFFSET 0.168000 16.242897 -1.435500
				CHANNELS 3 Xrotation Yrotation Zrotation
				JOINT Neck
				{
					OFFSET 0.217200 18.631500 -1.679100
					CHANNELS 3 Xrotation Yrotation Zrotation
					JOINT Head
					{
						OFFSET 0.000000 6.599396 1.385900
						CHANNELS 3 Xrotation Yrotation Zrotation
						JOINT Hat
						{
							OFFSET -0.532200 27.220596 -10.096100
							CHANNELS 3 Xrotation Yrotation Zrotation
							End Site
							{
								OFFSET 0.000000 22.029861 0.000000
							}
						}
						JOINT HairD
						{
							OFFSET -10.777400 17.437393 -1.325900
							CHANNELS 3 Xrotation Yrotation Zrotation
							JOINT HairD1
							{
								OFFSET -3.290299 -11.051193 1.062200
								CHANNELS 3 Xrotation Yrotation Zrotation
								End Site
								{
									OFFSET 0.000000 11.579437 0.000000
								}
							}
						}
						JOINT HairB
						{
							OFFSET -10.777400 17.437393 1.467900
							CHANNELS 3 Xrotation Yrotation Zrotation
							JOINT HairB1
							{
								OFFSET -1.561200 -12.956299 3.590200
								CHANNELS 3 Xrotation Yrotation Zrotation
								End Site
								{
									OFFSET 0.000000 13.534866 0.000000
								}
							}
						}
						JOINT HairA
						{
							OFFSET 9.713100 17.437393 1.467900
							CHANNELS 3 Xrotation Yrotation Zrotation
							JOINT HairA1
							{
								OFFSET 1.561200 -12.956299 3.590200
								CHANNELS 3 Xrotation Yrotation Zrotation
								End Site
								{
									OFFSET 0.000000 13.534866 0.000000
								}
							}
						}
						JOINT HairC
						{
							OFFSET 9.713100 17.437393 -1.325900
							CHANNELS 3 Xrotation Yrotation Zrotation
							JOINT HairC1
							{
								OFFSET 3.290300 -11.051193 1.062200
								CHANNELS 3 Xrotation Yrotation Zrotation
								End Site
								{
									OFFSET 0.000000 11.579437 0.000000
								}
							}
						}
					}
				}
				JOINT LeftShoulder
				{
					OFFSET 5.101800 15.108002 -2.763700
					CHANNELS 3 Xrotation Yrotation Zrotation
					JOINT LeftArm
					{
						OFFSET 9.825497 2.506317 -1.597400
						CHANNELS 3 Xrotation Yrotation Zrotation
						JOINT LeftForeArm
						{
							OFFSET 21.966244 0.000000 0.000000
							CHANNELS 3 Xrotation Yrotation Zrotation
							JOINT LeftHand
							{
								OFFSET 33.879036 0.000000 0.000000
								CHANNELS 3 Xrotation Yrotation Zrotation
								JOINT LeftHandThumb1
								{
									OFFSET 6.715286 -2.359680 3.363841
									CHANNELS 3 Xrotation Yrotation Zrotation
									JOINT LeftHandThumb2
									{
										OFFSET 2.507072 -1.447464 1.447461
										CHANNELS 3 Xrotation Yrotation Zrotation
										JOINT LeftHandThumb3
										{
											OFFSET 2.898338 -1.673355 1.673357
											CHANNELS 3 Xrotation Yrotation Zrotation
											End Site
											{
												OFFSET -0.295959 3.727692 -0.131651
											}
										}
									}
								}
								JOINT LeftHandIndex1
								{
									OFFSET 14.190811 -0.254547 3.840278
									CHANNELS 3 Xrotation Yrotation Zrotation
									JOINT LeftHandIndex2
									{
										OFFSET 3.551727 0.000000 -0.000000
										CHANNELS 3 Xrotation Yrotation Zrotation
										JOINT LeftHandIndex3
										{
											OFFSET 2.894196 0.000000 0.000000
											CHANNELS 3 Xrotation Yrotation Zrotation
											End Site
											{
												OFFSET -1.000603 2.690872 0.366626
											}
										}
									}
								}
								JOINT LeftHandMiddle1
								{
									OFFSET 13.776489 0.000000 0.000000
									CHANNELS 3 Xrotation Yrotation Zrotation
									JOINT LeftHandMiddle2
									{
										OFFSET 3.438232 0.000000 0.000000
										CHANNELS 3 Xrotation Yrotation Zrotation
										JOINT LeftHandMiddle3
										{
											OFFSET 3.691551 0.000000 0.000000
											CHANNELS 3 Xrotation Yrotation Zrotation
											End Site
											{
												OFFSET -1.082298 3.499527 0.457670
											}
										}
									}
								}
								JOINT LeftHandRing1
								{
									OFFSET 13.966164 -0.268127 -3.067488
									CHANNELS 3 Xrotation Yrotation Zrotation
									JOINT LeftHandRing2
									{
										OFFSET 3.162567 0.000000 0.000000
										CHANNELS 3 Xrotation Yrotation Zrotation
										JOINT LeftHandRing3
										{
											OFFSET 3.324348 0.000000 0.000000
											CHANNELS 3 Xrotation Yrotation Zrotation
											End Site
											{
												OFFSET -0.861900 3.184998 0.405154
											}
										}
									}
								}
								JOINT LeftHandPinky1
								{
									OFFSET 13.131393 -0.168503 -5.746925
									CHANNELS 3 Xrotation Yrotation Zrotation
									JOINT LeftHandPinky2
									{
										OFFSET 2.849182 0.000000 0.000000
										CHANNELS 3 Xrotation Yrotation Zrotation
										JOINT LeftHandPinky3
										{
											OFFSET 2.805038 0.000000 0.000000
											CHANNELS 3 Xrotation Yrotation Zrotation
											End Site
											{
												OFFSET -0.882500 2.642609 0.325652
											}
										}
									}
								}
							}
							JOINT Left_Sleeve
							{
								OFFSET 6.592125 -0.646545 0.805568
								CHANNELS 3 Xrotation Yrotation Zrotation
								End Site
								{
									OFFSET -0.000179 20.275787 -0.000000
								}
							}
						}
					}
				}
				JOINT RightShoulder
				{
					OFFSET -5.731700 15.108002 -2.763700
					CHANNELS 3 Xrotation Yrotation Zrotation
					JOINT RightArm
					{
						OFFSET -9.825497 2.506317 -1.597400
						CHANNELS 3 Xrotation Yrotation Zrotation
						JOINT RightForeArm
						{
							OFFSET -21.966242 0.000000 0.000000
							CHANNELS 3 Xrotation Yrotation Zrotation
							JOINT RightHand
							{
								OFFSET -33.879032 0.000000 0.000000
								CHANNELS 3 Xrotation Yrotation Zrotation
								JOINT RightHandThumb1
								{
									OFFSET -6.715286 -2.359680 3.363841
									CHANNELS 3 Xrotation Yrotation Zrotation
									JOINT RightHandThumb2
									{
										OFFSET -2.507072 -1.447464 1.447461
										CHANNELS 3 Xrotation Yrotation Zrotation
										JOINT RightHandThumb3
										{
											OFFSET -2.898338 -1.673355 1.673357
											CHANNELS 3 Xrotation Yrotation Zrotation
											End Site
											{
												OFFSET 0.295959 3.727692 -0.131651
											}
										}
									}
								}
								JOINT RightHandIndex1
								{
									OFFSET -14.190811 -0.254547 3.840278
									CHANNELS 3 Xrotation Yrotation Zrotation
									JOINT RightHandIndex2
									{
										OFFSET -3.551727 0.000000 -0.000000
										CHANNELS 3 Xrotation Yrotation Zrotation
										JOINT RightHandIndex3
										{
											OFFSET -2.894196 0.000000 0.000000
											CHANNELS 3 Xrotation Yrotation Zrotation
											End Site
											{
												OFFSET 1.000603 2.690872 0.366626
											}
										}
									}
								}
								JOINT RightHandMiddle1
								{
									OFFSET -13.776489 0.000000 0.000000
									CHANNELS 3 Xrotation Yrotation Zrotation
									JOINT RightHandMiddle2
									{
										OFFSET -3.438232 0.000000 0.000000
										CHANNELS 3 Xrotation Yrotation Zrotation
										JOINT RightHandMiddle3
										{
											OFFSET -3.691551 0.000000 0.000000
											CHANNELS 3 Xrotation Yrotation Zrotation
											End Site
											{
												OFFSET 1.082298 3.499527 0.457670
											}
										}
									}
								}
								JOINT RightHandRing1
								{
									OFFSET -13.966164 -0.268127 -3.067488
									CHANNELS 3 Xrotation Yrotation Zrotation
									JOINT RightHandRing2
									{
										OFFSET -3.162567 0.000000 0.000000
										CHANNELS 3 Xrotation Yrotation Zrotation
										JOINT RightHandRing3
										{
											OFFSET -3.324348 0.000000 0.000000
											CHANNELS 3 Xrotation Yrotation Zrotation
											End Site
											{
												OFFSET 0.861900 3.184998 0.405154
											}
										}
									}
								}
								JOINT RightHandPinky1
								{
									OFFSET -13.131393 -0.168503 -5.746925
									CHANNELS 3 Xrotation Yrotation Zrotation
									JOINT RightHandPinky2
									{
										OFFSET -2.849182 0.000000 0.000000
										CHANNELS 3 Xrotation Yrotation Zrotation
										JOINT RightHandPinky3
										{
											OFFSET -2.805038 0.000000 0.000000
											CHANNELS 3 Xrotation Yrotation Zrotation
											End Site
											{
												OFFSET 0.882500 2.642609 0.325652
											}
										}
									}
								}
							}
							JOINT Right_Sleeve
							{
								OFFSET -6.592125 -0.646545 0.805568
								CHANNELS 3 Xrotation Yrotation Zrotation
								End Site
								{
									OFFSET 0.000179 20.275787 -0.000000
								}
							}
						}
					}
				}
				JOINT Bind_Right_JacketString
				{
					OFFSET -3.534800 11.969597 7.200700
					CHANNELS 3 Xrotation Yrotation Zrotation
					JOINT Bind_Right_JacketString1
					{
						OFFSET -0.319900 -6.102600 2.794100
						CHANNELS 3 Xrotation Yrotation Zrotation
						End Site
						{
							OFFSET 0.000000 6.719452 0.000000
						}
					}
				}
				JOINT Bind_Left_JacketString
				{
					OFFSET 2.904800 11.969597 7.200700
					CHANNELS 3 Xrotation Yrotation Zrotation
					JOINT Bind_Left_JacketString1
					{
						OFFSET 0.364800 -5.904503 3.186800
						CHANNELS 3 Xrotation Yrotation Zrotation
						End Site
						{
							OFFSET 0.000000 6.719513 0.000000
						}
					}
				}
				JOINT HairE
				{
					OFFSET 5.915200 17.612701 -11.592200
					CHANNELS 3 Xrotation Yrotation Zrotation
					JOINT HairE1
					{
						OFFSET 0.289200 -7.171898 -1.284500
						CHANNELS 3 Xrotation Yrotation Zrotation
						End Site
						{
							OFFSET 0.000000 7.291756 0.000000
						}
					}
				}
				JOINT HairF
				{
					OFFSET -0.864800 17.612701 -11.592200
					CHANNELS 3 Xrotation Yrotation Zrotation
					JOINT HairF1
					{
						OFFSET 0.000000 -14.087097 -2.127501
						CHANNELS 3 Xrotation Yrotation Zrotation
						End Site
						{
							OFFSET 0.000000 14.246841 0.000000
						}
					}
				}
				JOINT HairG
				{
					OFFSET -8.087700 17.612701 -11.592200
					CHANNELS 3 Xrotation Yrotation Zrotation
					JOINT HairG1
					{
						OFFSET -0.293600 -6.081398 -0.910100
						CHANNELS 3 Xrotation Yrotation Zrotation
						End Site
						{
							OFFSET 0.000000 6.156120 0.000000
						}
					}
				}
			}
		}
	}
	JOINT Pouch
	{
		OFFSET 0.000000 4.394501 10.847300
		CHANNELS 3 Xrotation Yrotation Zrotation
		End Site
		{
			OFFSET 0.000000 21.880577 0.000000
		}
	}
	JOINT Bag
	{
		OFFSET -13.229000 4.813004 -0.593300
		CHANNELS 3 Xrotation Yrotation Zrotation
		End Site
		{
			OFFSET 0.000000 21.880577 0.000000
		}
	}
	JOINT OccupyGuyFacialAnim_Joint
	{
		OFFSET 1.000000 -70.206398 -1.655000
		CHANNELS 3 Xrotation Yrotation Zrotation
		End Site
		{
			OFFSET 0.000000 21.880577 0.000000
		}
	}
}
MOTION
Frames: 4
Frame Time: 0.016667
5.061180 67.627518 -8.546457 12.688997 9.232405 -0.806979 -0.000000 0.000000 0.000000 -15.390672 13.903657 11.042486 52.926371 3.130138 2.085061 -8.637329 -1.464854 -11.178945 -0.000001 0.000003 -0.000002 0.000000 0.000001 0.000000 -40.414479 -6.337172 -6.389425 44.524750 -1.974819 3.166893 -11.696369 2.137754 -1.173756 0.000000 -0.000000 0.000000 -0.000000 0.000000 -0.000000 4.500024 -1.248610 0.201645 1.564957 -2.658698 2.901394 1.574395 -2.667813 2.901702 -3.216332 0.566821 2.708975 -15.707441 0.827950 3.034335 -0.000000 0.000000 0.000000 -0.000000 0.000000 0.000000 -0.000000 0.000000 0.000000 -0.000000 0.000000 0.000000 0.000000 0.000000 0.000001 -0.000000 0.000000 0.000000 0.000000 0.000000 0.000001 -0.000000 0.000000 0.000000 -0.000000 0.000000 0.000000 0.124292 -1.541123 2.568618 -46.523868 -11.866258 -46.983908 -0.000021 -112.648152 -0.000006 -69.625767 -13.116140 -10.477716 10.871943 24.431629 7.994433 2.368873 5.209912 -0.238680 0.000001 0.000002 0.000001 9.213485 7.430038 -85.046503 5.044714 5.795406 -82.065344 0.000002 -0.000001 0.000001 3.117083 7.733751 -77.810656 3.450917 5.337688 -65.744867 -0.000000 0.000003 0.000001 2.981551 8.002531 -85.786186 3.085026 5.157987 -61.746085 0.000003 0.000001 -0.000001 -0.595391 11.406716 -86.448168 6.485217 5.816709 -96.232782 -0.000002 -0.000000 0.000005 0.000000 -0.000000 -0.000002 -1.082564 -10.880360 5.337834 -47.164919 8.617415 48.689581 0.000092 120.211193 -0.000104 -63.342191 15.367429 21.209083 3.592540 -16.454969 -11.549601 2.790455 -6.737062 -0.669428 -0.000001 -0.000001 0.000000 -0.566142 0.330597 80.510220 3.774794 -4.572980 79.066768 -0.000001 0.000001 0.000002 -2.294808 -4.464819 67.849617 2.486302 -4.121237 62.190259 0.000004 0.000003 0.000001 -2.842495 -5.033167 74.536666 2.011854 -3.834329 55.359028 0.000000 -0.000000 0.000001 -12.727979 -6.563347 69.830215 4.358534 -4.647612 86.319309 0.000001 0.000001 -0.000001 0.000000 0.000000 -0.000001 -0.000001 0.000000 -0.000000 -0.000001 0.000000 0.000000 -0.000001 0.000000 0.000000 -0.000001 0.000000 0.000000 -0.000001 0.000000 -0.000000 -0.000001 0.000000 0.000000 -0.000001 0.000000 0.000000 -0.000001 0.000000 0.000000 -0.000001 0.000000 -0.000000 -0.000001 0.000000 0.000000 -0.000000 0.000000 0.000000 -0.000000 0.000000 0.000000 -0.000000 0.000000 0.000000 
4.965347 67.917374 -9.283129 14.008646 9.306119 -1.251764 0.000000 0.000001 -0.000000 -21.525292 12.948867 12.715895 58.402393 -0.045381 0.257515 -1.571127 -2.481899 -5.979816 0.000000 -0.000000 -0.000001 -0.000000 0.000001 -0.000000 -41.130139 -6.084257 -5.528447 47.859293 -2.760421 3.019035 -12.387797 2.272855 -1.517914 -0.000000 0.000000 -0.000000 0.000001 -0.000000 -0.000000 3.830633 -0.957953 0.761972 3.030183 -2.333151 2.316412 3.025679 -2.337050 2.305679 -3.373854 0.744376 1.970034 -20.406068 -0.736913 4.010719 0.000000 0.000000 0.000001 0.000000 0.000000 0.000001 0.000000 0.000000 0.000002 0.000000 0.000000 0.000000 0.000000 0.000000 0.000000 0.000000 0.000000 0.000000 0.000000 0.000000 0.000000 0.000000 0.000000 0.000001 0.000000 0.000000 0.000001 0.226647 -3.126610 5.972564 -55.645524 -11.976971 -43.754506 0.000053 -110.514728 0.000064 -73.310237 -11.632527 -11.828147 10.262757 23.809216 8.306474 2.382975 5.227098 -0.226557 0.000001 0.000001 -0.000001 8.714112 7.285054 -84.272097 4.989404 5.787476 -81.517160 0.000002 -0.000000 -0.000000 2.612497 7.606792 -77.289369 3.418796 5.323154 -65.399143 0.000004 0.000003 0.000001 2.429886 7.945347 -85.449341 3.065053 5.147236 -61.523837 0.000000 0.000000 0.000000 -1.236640 10.924698 -86.368166 6.459693 5.819427 -95.981179 -0.000004 -0.000001 0.000004 -0.000000 -0.000002 -0.000002 -1.787728 -12.486583 1.915337 -57.494128 10.708995 49.479915 0.000028 115.866482 -0.000031 -69.261192 14.057502 21.653310 4.491987 -16.714721 -11.255551 2.794854 -6.734289 -0.676023 -0.000000 -0.000003 -0.000002 0.329294 0.086549 80.589450 3.789492 -4.575803 79.251177 -0.000000 0.000003 -0.000001 -1.397279 -4.849285 68.072206 2.481670 -4.118814 62.125843 0.000001 -0.000002 -0.000003 -2.514216 -5.055755 73.935070 1.988874 -3.818375 55.014582 0.000001 0.000001 -0.000000 -12.704620 -6.509683 68.593397 4.286018 -4.642401 85.423844 -0.000001 -0.000001 0.000004 0.000002 -0.000003 0.000002 0.000001 -0.000000 -0.000000 0.000001 -0.000000 -0.000000 0.000001 -0.000000 0.000000 0.000001 -0.000000 0.000000 0.000001 -0.000000 -0.000000 0.000001 -0.000000 -0.000000 0.000001 -0.000000 0.000000 0.000001 -0.000000 0.000000 0.000001 -0.000000 -0.000000 0.000001 -0.000000 -0.000000 0.000000 0.000001 -0.000000 0.000000 0.000001 -0.000000 0.000000 0.000001 -0.000000 
4.852203 67.975296 -9.948711 15.000156 9.141133 -1.559587 -0.000002 -0.000000 0.000000 -26.730340 12.321539 13.367758 62.336220 -3.641985 -0.588992 7.380543 -2.714468 0.618319 -0.000001 0.000001 -0.000002 0.000001 0.000001 -0.000000 -41.368441 -5.790996 -4.592413 51.808054 -3.959098 2.861315 -13.844364 2.448227 -1.966229 0.000000 -0.000000 -0.000000 0.000001 0.000000 -0.000000 3.406423 -0.739047 1.213524 4.511544 -2.087240 1.761739 4.497385 -2.087711 1.743153 -3.569844 0.950903 1.228297 -24.802205 -2.130056 5.138534 -0.000000 -0.000000 0.000000 -0.000000 -0.000000 0.000000 -0.000000 -0.000000 0.000001 -0.000000 -0.000000 0.000000 -0.000000 0.000000 0.000001 -0.000000 -0.000000 0.000000 -0.000000 0.000000 0.000001 -0.000000 -0.000000 0.000000 -0.000000 -0.000000 0.000000 0.283900 -4.204906 10.156134 -64.274785 -8.933945 -40.664190 -0.000027 -108.101862 -0.000054 -77.039507 -10.296186 -13.415683 9.409425 23.501798 8.676172 2.397579 5.244800 -0.214003 -0.000001 -0.000001 0.000004 8.148820 7.258586 -83.446935 4.952672 5.781906 -81.152667 0.000000 0.000003 -0.000001 2.062250 7.456953 -76.699821 3.403249 5.316044 -65.231592 0.000003 -0.000000 0.000000 1.826200 7.873371 -85.043348 3.060721 5.144910 -61.475657 -0.000000 0.000001 0.000001 -1.938275 10.498841 -86.218147 6.450008 5.820448 -95.885460 -0.000000 0.000004 0.000002 0.000000 -0.000002 -0.000004 -2.697555 -14.467633 -1.739102 -67.851775 8.072123 51.708873 0.000194 110.708480 -0.000178 -75.665806 13.174096 22.239847 5.568534 -16.817358 -10.745262 2.799336 -6.731138 -0.682860 0.000000 0.000000 -0.000000 1.693635 -0.297649 81.040632 3.833121 -4.583823 79.797414 -0.000004 -0.000003 0.000001 -0.350501 -5.321348 68.847801 2.503172 -4.130082 62.424890 0.000003 0.000000 -0.000004 -2.233238 -5.138359 73.955103 1.991455 -3.820183 55.053384 -0.000000 0.000003 -0.000002 -12.916599 -6.321080 68.072131 4.244238 -4.638860 84.907564 -0.000002 0.000001 -0.000003 0.000000 0.000004 0.000001 0.000001 -0.000000 -0.000000 -0.000001 -0.000000 -0.000000 0.000001 -0.000000 -0.000000 0.000001 -0.000000 -0.000000 0.000001 -0.000000 -0.000000 -0.000001 -0.000000 -0.000000 0.000001 -0.000000 -0.000000 0.000001 -0.000000 -0.000000 0.000001 -0.000000 -0.000000 -0.000001 -0.000000 -0.000000 -0.000002 -0.000000 0.000000 -0.000002 -0.000000 0.000000 -0.000002 -0.000000 0.000000 
4.718363 67.758568 -10.522579 15.064023 8.759654 -1.554664 -0.000000 -0.000001 0.000000 -32.234917 11.302273 14.366126 71.340595 -3.312608 -0.557277 8.417627 -2.413782 4.931858 0.000002 0.000001 -0.000001 -0.000001 0.000001 -0.000001 -40.185336 -5.391972 -3.712023 54.889832 -5.419162 2.518825 -16.331090 2.565843 -1.939965 -0.000000 0.000000 -0.000000 0.000002 0.000000 -0.000000 4.249490 -0.647599 1.317335 5.525778 -2.007906 1.460071 5.510002 -2.001088 1.443115 -3.821980 1.179405 0.529720 -28.309546 -3.166418 6.680834 -0.000000 -0.000000 0.000000 -0.000000 -0.000000 0.000000 -0.000000 -0.000000 0.000000 -0.000000 -0.000000 -0.000001 -0.000000 0.000000 -0.000001 -0.000000 -0.000000 -0.000001 -0.000000 0.000000 -0.000001 -0.000000 -0.000000 0.000000 -0.000000 -0.000000 0.000000 0.256374 -4.260464 17.532853 -70.525070 -4.093739 -37.545092 0.000122 -104.831362 0.000126 -79.041039 -8.916960 -14.856355 8.253679 23.483862 9.167658 2.412681 5.263043 -0.200977 0.000001 -0.000002 -0.000002 7.606510 7.261727 -82.565765 4.989928 5.787532 -81.522119 0.000002 0.000002 -0.000002 1.559660 7.302402 -76.019363 3.452988 5.338611 -65.767120 -0.000000 -0.000001 -0.000001 1.313967 7.794518 -84.538563 3.114020 5.173385 -62.068128 0.000002 0.000001 -0.000002 -2.493211 10.178186 -85.864951 6.496547 5.815472 -96.344750 -0.000002 0.000000 0.000003 -0.000000 0.000000 0.000002 -4.311121 -16.380943 -8.167937 -75.846662 5.206701 53.753507 -0.000054 104.624394 0.000034 -76.793593 12.678096 22.126002 6.396739 -16.596228 -10.143371 2.803941 -6.727506 -0.689987 0.000000 0.000002 0.000000 3.111539 -0.689714 81.602982 3.886265 -4.593031 80.461855 -0.000000 -0.000001 -0.000000 0.498752 -5.717471 70.203785 2.541272 -4.149705 62.952597 -0.000000 0.000000 0.000001 -2.066113 -5.239474 74.468180 2.014221 -3.835960 55.394368 0.000003 0.000001 -0.000001 -13.284483 -6.125479 68.253780 4.234002 -4.637967 84.780666 0.000003 0.000001 -0.000005 -0.000001 -0.000002 0.000001 -0.000002 0.000000 -0.000000 -0.000000 -0.000000 -0.000000 -0.000002 0.000000 -0.000000 -0.000002 0.000000 -0.000000 -0.000002 0.000000 -0.000000 -0.000000 -0.000000 -0.000000 -0.000002 0.000000 -0.000000 -0.000002 0.000000 -0.000000 -0.000002 0.000000 -0.000000 -0.000000 -0.000000 -0.000000 -0.000000 -0.000001 0.000000 -0.000000 -0.000001 0.000000 -0.000000 -0.000001 0.000000 
